<svg xmlns="http://www.w3.org/2000/svg" viewBox="0 0 180 180">
  <defs>
    <linearGradient id="orb" x1="0" x2="1">
      <stop offset="0" stop-color="#0e1a2b"/>
      <stop offset="1" stop-color="#0b1220"/>
    </linearGradient>
  </defs>
  <g fill="none" stroke="#0e1a2b" stroke-width="8">
    <circle cx="90" cy="90" r="62"/>
    <path d="M48 66h84"/>
    <path d="M90 28v124"/>
    <path d="M54 100c10-10 26-16 36-16"/>
    <path d="M126 100c-10-10-26-16-36-16"/>
    <circle cx="66" cy="78" r="6" fill="#0e1a2b" stroke="none"/>
    <circle cx="114" cy="78" r="6" fill="#0e1a2b" stroke="none"/>
    <circle cx="90" cy="112" r="6" fill="#0e1a2b" stroke="none"/>
  </g>
  <path d="M30 126c52-18 86-14 122-2" stroke="#ff7a00" stroke-width="12" fill="none" stroke-linecap="round"/>
  <g transform="translate(140 98) rotate(20)">
    <path d="M0 0l22 8-22 8 4-8z" fill="#ff7a00"/>
    <rect x="-6" y="6" width="10" height="6" rx="3" fill="#ff7a00"/>
  </g>
</svg>
